<svg width="537" height="537" viewBox="0 0 537 537" fill="none" xmlns="http://www.w3.org/2000/svg">
<path d="M447.5 223.25C447.5 393.944 268.25 492.125 268.25 492.125C268.25 492.125 89 393.944 89 223.25C89 175.71 107.885 130.117 141.501 96.5011C175.117 62.8852 220.71 44 268.25 44C315.79 44 361.383 62.8852 394.999 96.5011C428.615 130.117 447.5 175.71 447.5 223.25Z" stroke="#73882F" stroke-width="30" stroke-linecap="round" stroke-linejoin="round"/>
<mask id="mask0_5_2" style="mask-type:alpha" maskUnits="userSpaceOnUse" x="191" y="156" width="154" height="132">
<path d="M324.308 267.34L328.923 188.727H207.077L211.692 267.34C211.941 271.577 213.798 275.558 216.882 278.47C219.967 281.381 224.046 283.002 228.286 283H307.714C311.954 283.002 316.033 281.381 319.118 278.47C322.202 275.558 324.059 271.577 324.308 267.34Z" fill="#D9D9D9"/>
<path d="M204.308 188.727H207.077H328.923H331.692C336.278 188.727 340 185.001 340 180.409V169.318C340 164.727 336.278 161 331.692 161H204.308C199.722 161 196 164.727 196 169.318V180.409C196 185.001 199.722 188.727 204.308 188.727Z" fill="#D9D9D9"/>
<path d="M328.923 188.727L324.308 267.34C324.059 271.577 322.202 275.558 319.118 278.47C316.033 281.381 311.954 283.002 307.714 283H228.286C224.046 283.002 219.967 281.381 216.882 278.47C213.798 275.558 211.941 271.577 211.692 267.34L207.077 188.727M328.923 188.727H207.077M328.923 188.727H331.692M207.077 188.727H204.308M253.231 216.455H282.769M204.308 188.727H331.692M204.308 188.727C199.722 188.727 196 185.001 196 180.409V169.318C196 164.727 199.722 161 204.308 161H331.692C336.278 161 340 164.727 340 169.318V180.409C340 185.001 336.278 188.727 331.692 188.727" stroke="white" stroke-width="10" stroke-linecap="round" stroke-linejoin="round"/>
</mask>
<g mask="url(#mask0_5_2)">
<path d="M328.923 188.727L324.308 267.34C324.059 271.577 322.202 275.558 319.118 278.47C316.033 281.381 311.954 283.002 307.714 283H228.286C224.046 283.002 219.967 281.381 216.882 278.47C213.798 275.558 211.941 271.577 211.692 267.34L207.077 188.727M253.231 216.455H282.769M204.308 188.727H331.692C336.278 188.727 340 185.001 340 180.409V169.318C340 164.727 336.278 161 331.692 161H204.308C199.722 161 196 164.727 196 169.318V180.409C196 185.001 199.722 188.727 204.308 188.727Z" stroke="#02857A" stroke-width="10" stroke-linecap="round" stroke-linejoin="round"/>
<path d="M339.95 223.25C339.95 242.266 332.396 260.503 318.95 273.95C305.503 287.396 287.266 294.95 268.25 294.95C249.234 294.95 230.997 287.396 217.55 273.95C204.104 260.503 196.55 242.266 196.55 223.25C196.55 204.234 204.104 185.997 217.55 172.55C230.997 159.104 249.234 151.55 268.25 151.55C287.266 151.55 305.503 159.104 318.95 172.55C332.396 185.997 339.95 204.234 339.95 223.25Z" stroke="#02857A" stroke-width="30" stroke-linecap="round" stroke-linejoin="round"/>
</g>
</svg>
